<?xml version="1.0" encoding="utf-8"?>
<!-- Generator: Adobe Illustrator 24.3.0, SVG Export Plug-In . SVG Version: 6.00 Build 0)  -->
<svg version="1.1" id="Original" xmlns="http://www.w3.org/2000/svg" xmlns:xlink="http://www.w3.org/1999/xlink" x="0px" y="0px"
	 viewBox="0 0 64 64" style="enable-background:new 0 0 64 64;" xml:space="preserve">
<style type="text/css">
	.st0{fill:#333333;}
</style>
<g>
	<path class="st0" d="M26.4,18.9c0,3.1,2.5,5.6,5.6,5.6s5.6-2.5,5.6-5.6c0-3.1-2.5-5.6-5.6-5.6S26.4,15.8,26.4,18.9z M32,15.8
		c1.7,0,3.1,1.4,3.1,3.1c0,1.7-1.4,3.1-3.1,3.1c-1.7,0-3.1-1.4-3.1-3.1C28.9,17.2,30.3,15.8,32,15.8z"/>
	<rect x="37" y="32" class="st0" width="2.5" height="30"/>
	<rect x="30.7" y="47" class="st0" width="2.5" height="15"/>
	<path class="st0" d="M49.5,19.5c3.1,0,5.6-2.5,5.6-5.6c0-3.1-2.5-5.6-5.6-5.6s-5.6,2.5-5.6,5.6C43.9,17,46.4,19.5,49.5,19.5z
		 M49.5,10.8c1.7,0,3.1,1.4,3.1,3.1c0,1.7-1.4,3.1-3.1,3.1c-1.7,0-3.1-1.4-3.1-3.1C46.4,12.2,47.8,10.8,49.5,10.8z"/>
	<rect x="54.5" y="27" class="st0" width="2.5" height="30"/>
	<rect x="48.2" y="42" class="st0" width="2.5" height="15"/>
	<path class="st0" d="M55.8,20.8H43.3c-3.4,0-5.7,1.9-6.2,5H26.9c-0.5-3.1-2.8-5-6.2-5H8.3C4.8,20.8,2,23.6,2,27v10c0,2.8,2.2,5,5,5
		v-2.5c-1.4,0-2.5-1.1-2.5-2.5V27c0-2.1,1.7-3.8,3.8-3.8h12.5c2.5,0,3.4,1.4,3.6,2.6c-3,0.5-4.9,2.8-4.9,6.1v10c0,0,0,0,0,0l0,15H22
		l0-10.7c0.7,0.4,1.6,0.7,2.5,0.7l0,15H27l0-30h-2.5l0,12.5c-1.4,0-2.5-1.1-2.5-2.5v-1.3V32c0-1.4,0.5-3.8,3.8-3.8h12.5
		c2.1,0,3.8,1.7,3.8,3.8v8.8V42c0,1.4-1.1,2.5-2.5,2.5V47c0.9,0,1.8-0.2,2.5-0.7L42,57h2.5l0-15c0,0,0,0,0,0V32c0-3-2.1-5.5-4.9-6.1
		c0.3-1.3,1.1-2.7,3.6-2.7h12.5c2.1,0,3.8,1.7,3.8,3.8v10c0,1.4-1.1,2.5-2.5,2.5V42c2.8,0,5-2.2,5-5V27C62,23.6,59.2,20.8,55.8,20.8
		z"/>
	<path class="st0" d="M14.5,19.5c3.1,0,5.6-2.5,5.6-5.6c0-3.1-2.5-5.6-5.6-5.6s-5.6,2.5-5.6,5.6C8.9,17,11.4,19.5,14.5,19.5z
		 M14.5,10.8c1.7,0,3.1,1.4,3.1,3.1c0,1.7-1.4,3.1-3.1,3.1c-1.7,0-3.1-1.4-3.1-3.1C11.4,12.2,12.8,10.8,14.5,10.8z"/>
	<rect x="7" y="27" class="st0" width="2.5" height="30"/>
	<rect x="13.3" y="42" class="st0" width="2.5" height="15"/>
	<path class="st0" d="M25.8,13.3c3.1,0,5.6-2.5,5.6-5.6c0-3.1-2.5-5.6-5.6-5.6s-5.6,2.5-5.6,5.6C20.1,10.7,22.6,13.3,25.8,13.3z
		 M25.8,4.5c1.7,0,3.1,1.4,3.1,3.1c0,1.7-1.4,3.1-3.1,3.1c-1.7,0-3.1-1.4-3.1-3.1C22.6,5.9,24,4.5,25.8,4.5z"/>
	<path class="st0" d="M38.3,13.3c3.1,0,5.6-2.5,5.6-5.6c0-3.1-2.5-5.6-5.6-5.6s-5.6,2.5-5.6,5.6C32.6,10.7,35.1,13.3,38.3,13.3z
		 M38.3,4.5c1.7,0,3.1,1.4,3.1,3.1c0,1.7-1.4,3.1-3.1,3.1c-1.7,0-3.1-1.4-3.1-3.1C35.1,5.9,36.5,4.5,38.3,4.5z"/>
</g>
</svg>
