<svg height="512" viewBox="0 0 69 69" width="512" xmlns="http://www.w3.org/2000/svg"><g id="Page-1" fill="none" fill-rule="evenodd"><g id="yum_filled" fill="rgb(0,0,0)" fill-rule="nonzero" transform="translate(-55 -416)"><path id="roasting,-coffee,-beans,-burn,-drink,-aroma" d="m59.736544 477.7193c-6.7608936-6.760894-4.656925-19.384705 4.2426407-28.284271 8.8995658-8.899566 21.5233776-11.003535 28.2842713-4.242641 6.7608936 6.760894 4.656925 19.384706-4.2426407 28.284271-8.8995658 8.899566-21.5233776 11.003535-28.2842713 4.242641zm21.3942388-23.819595c-.7636664 3.054666-2.5611883 4.852188-5.6158541 5.615854-4.4878066 1.121952-7.4043299 4.038475-8.5262815 8.526282-.2678975 1.07159.3836239 2.157458 1.4552137 2.425356 1.0715899.267897 2.1574588-.383624 2.4253563-1.455214.7636664-3.054666 2.5611883-4.852187 5.6158541-5.615854 4.4878066-1.121952 7.4043299-4.038475 8.5262815-8.526281.2678975-1.07159-.3836239-2.157459-1.4552137-2.425357-1.0715899-.267897-2.1574588.383624-2.4253563 1.455214zm13.7032003-11.788382c8.1617439-3.565714 18.9527919 1.734532 24.9229859 12.07521 6.292943 10.899698 5.057938 23.637911-3.222432 28.418585-7.387481 4.265164-17.456365.506827-24.0107899-8.093545 8.9446839-10.269161 10.5767659-24.138982 2.568136-32.147612-.0853055-.085305-.171276-.169517-.2579-.252638zm8.2008569 20.541646c-.077808 4.625271 1.984486 8.197268 6.028992 10.44252.965739.536117 2.183234.187839 2.719351-.7779.536117-.96574.187839-2.183235-.7779-2.719352-2.752929-1.52825-4.023969-3.729756-3.971009-6.877988.018579-1.104413-.861664-2.014778-1.966077-2.033357s-2.014778.861664-2.033357 1.966077zm-37.5611565-30.126734c-.9006767 3.302481-.9006767 6.235763-.032161 8.841309.3492955 1.047887-.2170245 2.180527-1.2649111 2.529823-1.0478866.349295-2.1805266-.217025-2.5298221-1.264911-1.1314844-3.394454-1.1314844-7.127839-.0321611-11.158691 1.0784549-3.954334 3.2127124-7.86714 6.3816131-11.740241.719777-.879727 2.0270909-.983499 2.8766423-.228343 6.4485191 5.732017 9.4154534 11.665886 8.655828 17.742888-.137005 1.09604-1.1365853 1.873492-2.2326252 1.736487s-1.8734913-1.136586-1.7364863-2.232625c.5165887-4.13271-1.3506295-8.381471-5.7805021-12.789151-2.1037298 2.882818-3.5347427 5.737658-4.3054145 8.563455zm19.3198625-2.964497c-.8625239.690019-2.1211086.550176-2.8111277-.312348s-.5501764-2.121109.3123475-2.811128c3.0332733-2.426618 5.1410059-5.437665 6.3520235-9.070718.4316874-1.295062 2.0052742-1.786613 3.0973666-.967544 6.8184846 5.113863 9.8195281 9.598339 11.4250211 16.554132 2.59857-1.858233 3.86536-4.775152 3.86536-8.954132 0-1.689719 1.965617-2.618008 3.270557-1.544566 6.13469 5.046387 9.239062 11.612919 9.239062 19.544566 0 1.104569-.895431 2-2 2-1.10457 0-2-.895431-2-2 0-5.37742-1.637513-9.925119-4.950232-13.722007-1.005103 4.522107-3.724077 7.774066-8.098115 9.571852-1.185497.487255-2.5169122-.250729-2.7319593-1.514286-1.1514656-6.765692-3.1169582-10.708672-8.3574746-15.105139-1.5158632 3.23763-3.724964 6.021026-6.6128291 8.331318z"/></g></g></svg>